<svg id="Layer_1" data-name="Layer 1" xmlns="http://www.w3.org/2000/svg" viewBox="0 0 252.69 252.69"><defs><style>.cls-1{fill:#cd3537;}.cls-1,.cls-2{stroke:#231f20;stroke-miterlimit:10;stroke-width:7px;}.cls-2{fill:#fff;}</style></defs><title>faviconc</title><rect class="cls-1" x="3.5" y="3.5" width="245.69" height="245.69" rx="12" ry="12"/><path class="cls-2" d="M83.27,91.54a49.32,49.32,0,0,1,3.24-20.82,46,46,0,0,1,11-16.39,52.19,52.19,0,0,1,17.21-10.85A69.11,69.11,0,0,1,137,38.94c3.08-.15,7.42-.47,10.1.25,6.71,2.18,11,3.84,13.86,4.12s51.8-5,51.8-5l1.15,24.4s-10.87,4.69-12.42.55c-3.5-8.8-15.34-5.52-16.27-1.82s4.64,6.77,6.4,11.34a44.21,44.21,0,0,1,3,13.84q1,22.08-13.16,36.29t-40,15.42a55.41,55.41,0,0,1-12-.6q-6.66,3.22-6.35,9.9c.15,3.1,1.25,5.38,3.32,6.84s5.64,2.06,10.72,1.82l29.11-1.37c14.33-.67,20.13,2.14,29.06,8.42s10.71,32,10.71,32l3,33.79-15.83,7.83a127.44,127.44,0,0,1-17,7.49,105,105,0,0,1-28.94,5.15q-29.65,1.39-47.45-9T80.9,209.28a25.19,25.19,0,0,1,5.2-17q5.64-7.39,16.06-12a37.57,37.57,0,0,1-8-7.92q-4.06-5.19-4.45-13.33a26.1,26.1,0,0,1,4.67-16.82,38.52,38.52,0,0,1,13.35-11.69,44.07,44.07,0,0,1-8.3-5.58A45.33,45.33,0,0,1,86,105.68,46.51,46.51,0,0,1,83.27,91.54ZM131.73,189c-21.55,11-20.09,18.41-17.69,25.82s8.14,14.11,30.29,9.79,44.77-14.4,40.24-29.13S153.28,178,131.73,189ZM159.26,87.71q-.51-11.34-6.48-16.89a19.41,19.41,0,0,0-14.68-5.16q-9,.41-14.3,6.47T119,89.23q.51,11.63,6.49,17.17a19.35,19.35,0,0,0,14.69,5.16q9-.41,14.29-6.46T159.26,87.71Z" transform="translate(-18.15 -16.49)"/></svg>