<?xml version="1.0" encoding="utf-8"?>
<!-- Generator: Adobe Illustrator 22.0.1, SVG Export Plug-In . SVG Version: 6.00 Build 0)  -->
<svg version="1.1" id="Layer_1" xmlns="http://www.w3.org/2000/svg" xmlns:xlink="http://www.w3.org/1999/xlink" x="0px" y="0px"
	 viewBox="0 0 288 288" style="enable-background:new 0 0 288 288;" xml:space="preserve">
<style type="text/css">
	.st0{fill:#CD3636;stroke:#FFFFFF;stroke-miterlimit:10;}
	.st1{fill:#C4BFBF;stroke:#FFFFFF;stroke-width:5;stroke-miterlimit:10;}
	.st2{stroke:#FFFFFF;stroke-width:5;stroke-miterlimit:10;}
	.st3{fill:none;stroke:#FFFFFF;stroke-width:4;stroke-miterlimit:10;}
</style>
<g>
	<g>
		<rect class="st0" width="288" height="288"/>
		<path class="st1" d="M15.6,91.4c-0.4-8,0.8-15.3,3.4-22c2.7-6.7,6.5-12.4,11.6-17.3c5-4.8,11.1-8.7,18.2-11.5s14.9-4.4,23.5-4.8
			c3.3-0.2,7.8-0.5,10.7,0.3c7.1,2.3,11.6,4.1,14.6,4.3c3,0.3,54.7-5.3,54.7-5.3l1.2,25.8c0,0-11.5,5-13.1,0.6
			c-3.7-9.3-16.2-5.8-17.2-1.9s4.9,7.1,6.8,12c1.9,4.8,2.9,9.7,3.1,14.6c0.7,15.5-3.9,28.3-13.9,38.3c-10,10-24.1,15.4-42.3,16.3
			c-4.8,0.2-9,0-12.7-0.6c-4.7,2.3-6.9,5.8-6.7,10.5c0.2,3.3,1.3,5.7,3.5,7.2c2.2,1.5,6,2.2,11.3,1.9l30.7-1.4
			c15.1-0.7,21.3,2.3,30.7,8.9c9.4,6.6,11.3,33.8,11.3,33.8l3.1,35.7l-16.7,8.3c0,0-8.9,4.8-17.9,7.9c-9.1,3.1-19.3,4.9-30.5,5.4
			c-20.9,1-37.6-2.2-50.1-9.5c-12.5-7.3-19.1-18.3-19.8-33c-0.3-6.7,1.5-12.7,5.5-17.9c4-5.2,9.6-9.4,17-12.6
			c-2.8-1.9-5.6-4.7-8.5-8.4c-2.9-3.7-4.4-8.3-4.7-14.1c-0.3-6.7,1.3-12.7,4.9-17.8c3.6-5.1,8.3-9.2,14.1-12.3
			c-2.9-1.5-5.9-3.5-8.8-5.9c-2.9-2.4-5.6-5.3-8-8.7c-2.5-3.4-4.5-7.3-6.2-11.7C16.9,101.9,15.9,96.9,15.6,91.4z M66.8,194.4
			c-22.8,11.6-21.2,19.4-18.7,27.3c2.5,7.8,8.6,14.9,32,10.3c23.4-4.6,47.3-15.2,42.5-30.8S89.6,182.8,66.8,194.4z M95.9,87.4
			c-0.4-8-2.6-13.9-6.8-17.8c-4.2-3.9-9.4-5.7-15.5-5.4c-6.3,0.3-11.4,2.6-15.1,6.8C54.7,75.2,53,81.2,53.4,89
			c0.4,8.2,2.7,14.2,6.9,18.1c4.2,3.9,9.4,5.7,15.5,5.4c6.3-0.3,11.4-2.6,15.1-6.8C94.6,101.5,96.3,95.3,95.9,87.4z"/>
	</g>
	<g>
		<path class="st2" d="M187.5,197.2l50.3-162.9l35.6-0.9c0,0-68.1,210.6-69.6,215.1C188.2,227.6,157,234,157,234L136.9,36.6l38-7.3"
			/>
	</g>
	<path d="M172.8,32.4l-33.1,6.3c0,0,1.1,13,1.9,19C141.2,57,172.8,32.4,172.8,32.4z"/>
	<line class="st3" x1="174.8" y1="26.8" x2="187.5" y2="197.2"/>
</g>
</svg>
