<svg id="Layer_1" data-name="Layer 1" xmlns="http://www.w3.org/2000/svg" viewBox="0 0 266.3 234.26"><defs><style>.cls-1,.cls-2{fill:#cd3438;}.cls-1,.cls-3{stroke:#231f20;stroke-miterlimit:10;}.cls-1{stroke-width:5px;}.cls-3{fill:none;stroke-width:4px;}</style></defs><title>logo</title><path class="cls-1" d="M15.65,91.42a52.14,52.14,0,0,1,3.42-22A48.5,48.5,0,0,1,30.64,52.14,55.34,55.34,0,0,1,48.81,40.67a72.92,72.92,0,0,1,23.53-4.79c3.25-.15,7.83-.5,10.66.27,7.1,2.29,11.65,4.05,14.65,4.34s54.69-5.3,54.69-5.3L153.55,61s-11.48,4.95-13.11.58c-3.7-9.29-16.2-5.83-17.18-1.92s4.9,7.15,6.76,12a46.78,46.78,0,0,1,3.13,14.61q1.09,23.31-13.89,38.31T77,140.8a57.62,57.62,0,0,1-12.7-.63q-7,3.41-6.71,10.46c.16,3.28,1.32,5.68,3.51,7.22s6,2.18,11.32,1.92l30.73-1.44c15.13-.71,21.26,2.26,30.69,8.88S145.14,201,145.14,201l3.14,35.68-16.71,8.28a134.36,134.36,0,0,1-17.94,7.9,110.53,110.53,0,0,1-30.54,5.44Q51.77,259.74,33,248.79t-19.84-33a26.62,26.62,0,0,1,5.49-17.94q6-7.81,17-12.63a39.7,39.7,0,0,1-8.45-8.37q-4.3-5.48-4.7-14.07A27.61,27.61,0,0,1,27.38,145a40.58,40.58,0,0,1,14.1-12.34,46.77,46.77,0,0,1-8.77-5.89,48.48,48.48,0,0,1-8-8.7,47.61,47.61,0,0,1-6.16-11.7A48.85,48.85,0,0,1,15.65,91.42ZM66.82,194.36C44.07,206,45.6,213.8,48.14,221.63s8.6,14.89,32,10.33,47.27-15.2,42.48-30.75S89.57,182.76,66.82,194.36Zm29.07-107q-.54-12-6.84-17.83a20.56,20.56,0,0,0-15.51-5.45q-9.48.43-15.09,6.83T53.36,89q.55,12.27,6.86,18.14a20.51,20.51,0,0,0,15.51,5.45q9.48-.43,15.09-6.83T95.89,87.37Z" transform="translate(-10.61 -26.68)"/><path class="cls-1" d="M187.53,197.17,237.86,34.25l35.59-.86S205.34,244,203.81,248.45C188.2,227.64,157,234,157,234L136.93,36.61l38-7.28" transform="translate(-10.61 -26.68)"/><path class="cls-2" d="M172.77,32.44l-60.66,9.62c.81.35,26.81,11.56,29.73,16.45C141.39,57.74,172.77,32.44,172.77,32.44Z" transform="translate(-10.61 -26.68)"/><line class="cls-3" x1="164.23" y1="0.15" x2="176.92" y2="170.49"/></svg>